<svg width="25" height="25" viewBox="0 0 25 25" fill="none" xmlns="http://www.w3.org/2000/svg">
<g clip-path="url(#clip0_6919_9798)">
<rect x="0.0869141" y="0.402344" width="24" height="24" rx="12" fill="#EEF4FC"/>
<path d="M12.0876 5.73535C15.7694 5.73535 18.7542 8.72012 18.7542 12.402C18.7542 16.0839 15.7694 19.0687 12.0876 19.0687C8.40566 19.0687 5.4209 16.0839 5.4209 12.402C5.4209 8.72012 8.40566 5.73535 12.0876 5.73535ZM14.7571 12.9872C14.5268 12.6376 14.3607 12.3851 13.729 12.4852C12.5354 12.6747 12.403 12.8836 12.346 13.227L12.33 13.3316L12.3138 13.4418C12.2486 13.8972 12.2511 14.0695 12.4602 14.2892C13.3036 15.1742 13.8089 15.812 13.962 16.1851C14.0367 16.3676 14.2288 16.9187 14.0966 17.4638C14.9124 17.1398 15.6313 16.6242 16.1978 15.9726C16.2712 15.7234 16.3243 15.4131 16.3243 15.0366V14.9668C16.3243 14.3518 16.3243 14.0714 15.8896 13.823C15.7062 13.7188 15.5694 13.656 15.4597 13.6063C15.2149 13.495 15.0528 13.4218 14.8341 13.102C14.808 13.0639 14.7826 13.0259 14.7571 12.9872ZM12.0876 6.95757C10.5426 6.95757 9.14798 7.60107 8.15703 8.63466C8.275 8.71659 8.37781 8.8317 8.44842 8.99039C8.58442 9.29554 8.58442 9.60948 8.58442 9.88711C8.58415 10.1062 8.58384 10.3135 8.65418 10.464C8.75052 10.6696 9.16516 10.7569 9.53122 10.8336C9.662 10.8611 9.79686 10.8892 9.91954 10.9232C10.2569 11.0169 10.5179 11.3197 10.7272 11.5628C10.814 11.6641 10.9422 11.8129 11.0064 11.8498C11.04 11.8258 11.1476 11.7092 11.2008 11.5177C11.2414 11.3718 11.2298 11.2418 11.1702 11.1716C10.7974 10.7317 10.8177 9.88415 10.9329 9.57198C11.1144 9.07939 11.6812 9.11574 12.0956 9.14266C12.2501 9.15261 12.396 9.16217 12.5047 9.14852C12.9197 9.09646 13.0473 8.4656 13.1376 8.34202C13.3323 8.07522 13.928 7.67342 14.2981 7.42504C13.6226 7.12456 12.8746 6.95757 12.0876 6.95757Z" fill="#0561E2"/>
</g>
<defs>
<clipPath id="clip0_6919_9798">
<rect width="24" height="24" fill="white" transform="translate(0.0869141 0.402344)"/>
</clipPath>
</defs>
</svg>
