<svg width="18" height="18" viewBox="0 0 18 18" fill="none" xmlns="http://www.w3.org/2000/svg">
<path d="M5.20508 3.75002C5.20488 4.14784 5.04665 4.52929 4.76521 4.81046C4.48376 5.09162 4.10215 5.24947 3.70433 5.24927C3.3065 5.24907 2.92505 5.09084 2.64389 4.8094C2.36272 4.52795 2.20488 4.14634 2.20508 3.74852C2.20528 3.35069 2.3635 2.96924 2.64495 2.68808C2.92639 2.40691 3.308 2.24907 3.70583 2.24927C4.10365 2.24947 4.4851 2.40769 4.76627 2.68914C5.04743 2.97058 5.20528 3.35219 5.20508 3.75002ZM5.25008 6.36002H2.25008V15.75H5.25008V6.36002ZM9.99008 6.36002H7.00508V15.75H9.96008V10.8225C9.96008 8.07752 13.5376 7.82252 13.5376 10.8225V15.75H16.5001V9.80252C16.5001 5.17502 11.2051 5.34752 9.96008 7.62002L9.99008 6.36002Z" fill="#333333"/>
</svg>
