<svg width="18" height="18" viewBox="0 0 18 18" fill="none" xmlns="http://www.w3.org/2000/svg">
<g clip-path="url(#clip0_755_1250)">
<path d="M12.0296 2.78942C12.9591 2.78942 13.7983 3.16974 14.3895 3.78033C15.125 3.63802 15.8182 3.37871 16.4412 3.01955C16.2002 3.75138 15.6875 4.36533 15.0206 4.75374C15.6731 4.67696 16.2978 4.50933 16.8775 4.25874C16.4429 4.88705 15.8959 5.44027 15.2642 5.8824C15.2701 6.01655 15.2735 6.15211 15.2735 6.2871C15.2735 10.4308 12.0214 15.21 6.07467 15.21C4.24935 15.21 2.5492 14.6892 1.11934 13.7998C1.37514 13.8296 1.63245 13.8444 1.88996 13.8443C3.4045 13.8443 4.7992 13.3434 5.90592 12.5013C4.49039 12.4771 3.29563 11.5695 2.88585 10.3244C3.08655 10.362 3.29029 10.3809 3.49448 10.381C3.78838 10.381 4.0747 10.343 4.34526 10.271C2.86645 9.98383 1.75185 8.71624 1.75185 7.19604V7.15584C2.18807 7.39097 2.68617 7.53216 3.21688 7.54847C2.34895 6.98539 1.77829 6.02691 1.77829 4.93873C1.77829 4.36358 1.93806 3.8247 2.21621 3.36317C3.81034 5.25936 6.19253 6.50811 8.87987 6.63945C8.82445 6.4105 8.79578 6.16864 8.79578 5.92536C8.79578 4.19314 10.2434 2.78942 12.0296 2.78942ZM12.0295 1.66449C9.82058 1.66449 7.99054 3.27832 7.70871 5.36351C5.9014 5.00041 4.25777 4.0436 3.0768 2.63988C2.97123 2.5143 2.83947 2.41332 2.69074 2.34404C2.54202 2.27476 2.37995 2.23886 2.21588 2.23884C2.18642 2.23884 2.15696 2.23997 2.12759 2.24221C1.94926 2.25649 1.7769 2.31302 1.62476 2.40711C1.47261 2.50121 1.34505 2.63017 1.25262 2.78334C0.860407 3.43412 0.653179 4.17957 0.653256 4.9394C0.653256 5.44649 0.744363 5.94037 0.917068 6.40218C0.733131 6.60665 0.6271 6.87412 0.6271 7.15649V7.19671C0.6271 8.29867 1.06276 9.32127 1.78613 10.0877C1.74451 10.2806 1.75379 10.4826 1.81735 10.6761C2.06684 11.4351 2.52105 12.0893 3.10999 12.5877C2.71454 12.6757 2.30646 12.7202 1.88991 12.7202C1.66969 12.7202 1.45538 12.7081 1.2526 12.6833C1.2076 12.6777 1.16316 12.6757 1.11844 12.6757C0.645944 12.6757 0.217037 12.9736 0.0578497 13.4278C-0.116807 13.9256 0.0769923 14.4774 0.524725 14.7561C2.18637 15.79 4.1056 16.3359 6.07435 16.3359C12.4734 16.3359 16.3225 11.3266 16.3973 6.43337C16.9224 5.99894 17.3863 5.49543 17.7763 4.93655C17.9244 4.74208 18.0045 4.50431 18.0041 4.25986C18.0041 3.87708 17.8126 3.53874 17.521 3.33538C17.6472 2.90253 17.5032 2.43397 17.1517 2.14766C16.9463 1.9806 16.6946 1.89566 16.4415 1.89566C16.2442 1.89547 16.0504 1.94738 15.8796 2.04613C15.5078 2.26046 15.1101 2.43005 14.6913 2.55213C13.9336 1.98204 12.9942 1.66451 12.0295 1.66449Z" fill="#333333"/>
</g>
<defs>
<clipPath id="clip0_755_1250">
<rect width="18" height="18" fill="white"/>
</clipPath>
</defs>
</svg>
